<svg width="178" height="47" viewBox="0 0 178 47" fill="none" xmlns="http://www.w3.org/2000/svg">
<path d="M131.042 0.192679H177.651V46.7942H131.042V0.192679ZM47.4876 23.3498C47.4856 29.5293 45.0295 35.455 40.6593 39.8238C36.289 44.1927 30.3626 46.6469 24.1831 46.6469C18.0049 46.6469 12.0796 44.1937 7.70959 39.8264C3.33958 35.4592 0.882567 29.5354 0.878662 23.3572C0.878662 17.1765 3.33395 11.2489 7.70438 6.87846C12.0748 2.50802 18.0024 0.0527344 24.1831 0.0527344C30.3638 0.0527344 36.2914 2.50802 40.6619 6.87846C45.0323 11.2489 47.4876 17.1765 47.4876 23.3572M88.0273 31.7686L103.053 46.6543L111.464 38.1103L96.5713 23.3572L111.464 8.60409L103.053 0.192679L88.0273 14.9458L73.1343 0.192679L64.5829 8.60409L79.476 23.3572L64.5829 38.1103L73.1269 46.6543L88.0273 31.7686Z" fill="#B0CB32"/>
</svg>
