<svg width="84" height="84" viewBox="0 0 84 84" fill="none" xmlns="http://www.w3.org/2000/svg">
<path d="M0.23877 37.0767V0.201172H37.1143V37.0767H0.23877ZM9.45766 27.8578H27.8954V9.42006H9.45766V27.8578ZM0.23877 83.1712V46.2956H37.1143V83.1712H0.23877ZM9.45766 73.9523H27.8954V55.5145H9.45766V73.9523ZM46.3332 37.0767V0.201172H83.2088V37.0767H46.3332ZM55.5521 27.8578H73.9899V9.42006H55.5521V27.8578ZM73.9899 83.1712V73.9523H83.2088V83.1712H73.9899ZM46.3332 55.5145V46.2956H55.5521V55.5145H46.3332ZM55.5521 64.7334V55.5145H64.771V64.7334H55.5521ZM46.3332 73.9523V64.7334H55.5521V73.9523H46.3332ZM55.5521 83.1712V73.9523H64.771V83.1712H55.5521ZM64.771 73.9523V64.7334H73.9899V73.9523H64.771ZM64.771 55.5145V46.2956H73.9899V55.5145H64.771ZM73.9899 64.7334V55.5145H83.2088V64.7334H73.9899Z" fill="#B0CB32"/>
</svg>
